<?xml version="1.0" encoding="UTF-8" standalone="no"?>
<!DOCTYPE svg PUBLIC "-//W3C//DTD SVG 1.1//EN" "http://www.w3.org/Graphics/SVG/1.1/DTD/svg11.dtd">
<svg width="100%" height="100%" viewBox="0 0 1400 1100" version="1.1" xmlns="http://www.w3.org/2000/svg"  style="fill-rule:evenodd;clip-rule:evenodd;stroke-linejoin:round;stroke-miterlimit:2;">
    <g>
        <clipPath id="_clip1">
            <rect x="0" y="0" width="1400" height="1100"/>
        </clipPath>
        <g clip-path="url(#_clip1)">
            <g>
                <path d="M623.9,-43.9L635.6,244.1L490.4,539.6L546.2,572.6L646.4,352.8L659.9,236.5L644.9,-43.9L623.9,-43.9Z" style="fill:rgb(44,134,79);fill-rule:nonzero;"/>
                <path d="M1013.9,-28L983.9,70.1L874.7,148.1L761.9,206.6L635.6,327L647.9,257.5L752.9,190L864.3,137.8L938.9,62.6L943.4,-28L1013.9,-28ZM351.6,-43.9L351.6,171.6L268.3,310.5L242.9,460.6L318.5,476.3L311.1,312.4L383.1,184L383.1,-28L351.6,-43.9ZM509.4,-52.9L517.4,49L575.1,184L623.9,291.4L647.9,257.5L592.4,171.6L530.9,49L529.4,-35.1L509.4,-52.9ZM731.9,-35.1L641.9,86.1L641.9,131.6L742.5,-28L731.9,-35.1Z" style="fill:rgb(44,134,79);fill-rule:nonzero;"/>
                <path d="M887.5,-39.8C884.1,-41.1 719.4,687 719.4,687L751.4,735.5L905.9,-28L887.5,-39.8Z" style="fill:rgb(44,134,79);fill-rule:nonzero;"/>
                <path d="M893.9,390.2L798,443.6L789,476.3L893.9,390.2ZM1013.9,-28L975.4,392.2L965.9,501L899.9,659.8L883.4,770.6L859.4,792.2L911.9,843.3L905.9,776.6L922.4,666.3L989.9,501L995.9,376.1L1006.4,257.5L1013.9,-28Z" style="fill:rgb(44,134,79);fill-rule:nonzero;"/>
                <path d="M1123.3,-10.9L991.3,305.8L991.3,361.1L1123.3,-10.9ZM1067.5,469.1L1013.9,550L936.6,614.6L917.9,653.6L1021.4,561.3L1067.5,469.1ZM917.9,352.8L925.4,451L965.9,501L975.4,476.3L941.7,450.2L917.9,352.8ZM1232.8,298.1L1232.8,485.6L1259.8,641.6L1201.3,770.6L1159.3,878.6L1137.6,899.7L1214.8,925.1L1207.3,869.6L1225.3,775.1L1292.8,666.3L1240.3,501L1255.3,450.2L1303.3,407.6L1303.3,361.1L1370.8,298.1L1292.8,361.1L1291.3,405L1247.8,433.2L1240.3,281.6L1232.8,298.1Z" style="fill:rgb(44,134,79);fill-rule:nonzero;"/>
            </g>
            <path d="M1475.2,950.4C1281,933.8 1082.7,906.1 910.6,814.6C764,736.7 644,616.4 501.5,531.1C329.4,428.1 125.6,379 -74.5,392.3C90.1,611.3 301.2,800.4 550,915C798.8,1029.6 1081.2,1074.8 1351.7,1031.3C1404.6,1022.8 1464.8,1002.9 1475.2,950.4Z" style="fill:rgb(44,134,79);fill-rule:nonzero;"/>
            <g>
                <path d="M1419.2,1034C945.7,1099.2 461.1,1095 -9,1009C-0.4,799.9 -24.5,590.8 -90.6,392.2C159.6,396.3 407.7,486 602.7,643C665.4,693.5 722.8,750.7 789.5,795.6C973.3,919.3 1206.1,937.4 1427.2,950.4C1418.1,975.9 1418,1006.8 1419.2,1034Z" style="fill:rgb(20,117,73);fill-rule:nonzero;"/>
                <path d="M668.3,-27.4L678.6,244.1L656.4,393.6L567.9,645.4L634.4,707.6L685.4,392.2L703.4,244.3L678.6,-35.1L668.3,-27.4Z" style="fill:rgb(20,117,73);fill-rule:nonzero;"/>
                <path d="M789,-43.9L686.9,170.6L686.9,216L798,-35.1L789,-43.9ZM398.9,-28L398.9,185L275.9,477L324.4,501L427.4,190L427.4,-28L398.9,-28Z" style="fill:rgb(20,117,73);fill-rule:nonzero;"/>
                <path d="M292.4,-40.8L412.4,184L405.4,145L300.4,-43.9L292.4,-40.8ZM601.4,-35.1C599.4,-30 548.4,86 548.4,86L412.4,154.9L427.4,189.9L558.4,94.9L606.4,-28.1L601.4,-35.1ZM1259.8,-35.1L1184.8,421.8L1114.3,581.3L1031.9,843.3L975.4,896.4L1109.8,937L1097.8,891.1L1172.8,595.1L1205.8,520.1L1216.3,421.8L1253.8,190L1250.8,137.6L1285.3,-35.1L1259.8,-35.1Z" style="fill:rgb(20,117,73);fill-rule:nonzero;"/>
                <path d="M1408.3,0L1382.8,124.1L1304.8,196.1L1226.8,286.1L1214.8,343.1L1311.6,206.6L1400,128.6L1408.3,0ZM1143.4,-35.1L1240.3,184L1240.3,136.1L1156.3,-35.1L1143.4,-35.1ZM1096.3,236.5L1117.3,368.6L1178.8,469.1L1178.8,440.6L1130.4,362.6L1096.3,236.5Z" style="fill:rgb(20,117,73);fill-rule:nonzero;"/>
            </g>
            <g>
                <path d="M1415.6,1102.3C940.7,1196.3 444,1206.1 -31.5,1115.1C-51.6,899 -61.1,677.6 -64.2,460.6C113.9,474.5 276.3,565 425.7,662.8C575.1,760.6 720.9,869.3 889.6,927.7C1059.9,986.7 1248.8,990.5 1421.3,938.6C1415.7,991.1 1414.3,1049.5 1415.6,1102.3Z" style="fill:rgb(0,86,72);fill-rule:nonzero;"/>
                <path d="M236.9,-35.1L150.3,122.6L110.2,336.3L89.9,521.6L157.4,550L150.3,353.6L182.8,128.6L262.4,-28.9L236.9,-35.1ZM463.4,-35.1L449.9,188.6L373.4,327L275.9,592.1L362.9,659.8L369.6,575.6L451.4,315.6L490.4,216L490.4,-35.1L463.4,-35.1ZM853.4,-52.9L779.3,145.4L721.4,425.6L661.4,739.1L623.9,811.1L751.4,896.4L728.9,749.5L766.9,460.6L812.7,167.2L899.9,-35.1L853.4,-52.9ZM1018.4,976.1L1067.6,929C1049.3,939.3 1031,949.5 1012.6,959.8L1045.6,922.3C1031.5,930.8 1017.5,939.2 1003.4,947.7C1019.4,929.7 1035.4,911.6 1051.3,893.6C1030.9,909.3 1010.5,924.9 990.2,940.6C995.171,928.133 1003.39,917.22 1014,909C993.7,920.3 973.4,931.7 953.1,943L974.9,917.6L929.9,935.6C936.9,928.1 943.9,920.7 950.9,913.2L905.9,929.7L932.9,904.2C920.2,906.3 907.9,911 896.9,917.7L919.4,892.2C905.975,895.628 893.606,902.328 883.4,911.7L905.9,883.2C890.454,886.927 876.812,895.998 867.4,908.8L874.6,884.4L854.6,902.3L854.9,881.6C848.349,886.793 844.048,894.319 842.9,902.6C841.3,894.6 839.8,886.6 838.2,878.5L830.7,898C830.3,884.8 825,871.7 815.9,862.1L820.4,925.1C882.2,947.6 949.8,969.5 1015.5,974C1013.6,975.3 1020.3,974.7 1018.4,976.1ZM494.9,719.6C494.2,721.4 493.6,723.2 492.9,725C516.9,705.2 544,689.2 572.9,677.7C549.5,678.3 526.2,683.8 505,693.7C526,677.6 546.9,661.5 567.9,645.5C539.9,652.1 513.1,663.6 489,679.3C510.5,658.2 529,634 543.8,607.7C525.3,634.7 498.2,655.6 467.4,666.5C478.5,654.7 489.6,642.8 500.7,631C479.9,637.6 460.5,648.5 444.1,662.8L466.6,626.8C451.782,631.346 438.92,640.755 430.1,653.5C431.2,642.6 434.3,631.9 439.4,622.2C428.551,629.111 420.584,639.746 417,652.1L408,608.6C402.1,628.6 399,649.3 398.8,670.1C428.7,687.4 461.5,710.8 494.9,719.6Z" style="fill:rgb(0,86,72);fill-rule:nonzero;"/>
                <path d="M738.5,891.1C759.4,866.7 786,847.2 815.7,834.6C796.2,840.2 776.7,845.7 757.2,851.3C784,833.8 810.8,816.4 837.6,798.9C812.7,805 787.7,811 762.8,817.1C814,788.9 854.5,741.8 874.6,686.9C843.289,726.742 805.207,760.762 762.1,787.4C776,767.8 790,748.2 803.9,728.7C784.8,746.1 765.7,763.5 746.5,780.9C753,765 759.6,749 766.1,733.1C739.46,760.775 718.077,793.069 703,828.4C722.2,842.8 735.7,867.5 738.5,891.1Z" style="fill:rgb(0,86,72);fill-rule:nonzero;"/>
            </g>
            <path d="M164.9,-35.1L104.4,224.6C104.4,224.6 44.9,546.9 49.4,550C53.9,553.1 64.4,707.6 64.4,707.6L-33,707.6L-13.6,241.1L65.9,-35.1L164.9,-35.1Z" style="fill:rgb(0,72,66);fill-rule:nonzero;"/>
            <path d="M1409.1,930.4C1210.8,956.2 1022.2,1063.5 823.1,1044.1C665.6,1028.7 527.7,936.1 396.5,847.6C265.3,759.1 125,669 -33,659.8L-22.6,1133L1439.8,1133L1409.1,930.4Z" style="fill:rgb(0,72,66);fill-rule:nonzero;"/>
            <path d="M388,949.4C367.4,901.7 334.7,832.7 314.1,785C298.9,749.9 283.5,714.1 279.9,676C275.7,632.1 287.4,588.5 295.4,545.1C303.4,501.7 310.9,448.1 292.4,408.1C335.9,366.1 391.2,321 451.4,315.6C530.6,308.5 614.2,297.2 690.5,274.7C703,241.1 721.5,207.3 741.1,177.3C773.2,173.1 805.9,168 838,163.8C863.8,136.8 894.6,110.1 924,87C925.6,49.3 946.4,9.9 975.4,-14.3C952.7,-13.3 930.5,-9.6 907.8,-8.7C895.9,16.4 907.4,48.3 894.1,72.7C889.8,80.6 883.2,87 876.5,93C858.9,108.9 844.1,130.5 821.1,136.3C788.9,144.4 756.2,149.5 723.4,155C705.4,177.7 681.4,205.2 663.4,227.8C530.9,251.1 398.1,283.1 270.4,325.2C263.4,268.7 236.2,202 260.2,150.4C298.1,69.2 353.6,-4.9 422.6,-62.2L305.4,-62.2C267,1.3 228.5,64.8 190.1,128.3C165.2,169.5 162.9,222.3 150.3,268.8C170.7,321.5 189,380.9 203.3,435.6C223.7,513.4 168.9,594.8 168.8,675.2C168.7,752.3 199,825.9 228.8,897C271.4,910.7 312.9,925.9 355.5,939.6C359.9,941 376.5,963.8 381,962.7C385.4,961.5 389.9,953.6 388,949.4Z" style="fill:rgb(0,50,59);fill-rule:nonzero;"/>
            <path d="M177,261.3C111.429,172.683 64.08,71.935 37.7,-35.1C74.6,56.8 124.8,140.2 182.8,220.5C183.4,233.9 176.3,247.9 177,261.3ZM-13.6,352L18.4,405L160.4,454L222.4,501L202.4,404L160.4,413L37.7,380L-13.6,327L-13.6,352ZM390.4,314L478.4,336L562.9,405L817.4,374L938.4,304L1084.4,309L1143.4,273L1083.4,302L945.4,286L913.4,291L915.4,266L963.4,216L906.4,259L886.4,302L814.4,354L598.4,376L503.4,296L390.4,314ZM-35,792.2C128.7,828.1 281.4,900.9 436.8,963.7C592.2,1026.5 755.7,1080.2 923.2,1074.9C1094.8,1069.4 1268.7,992.1 1439.7,1007.3L1439.7,1133L-22.6,1133L-35,792.2Z" style="fill:rgb(0,50,59);fill-rule:nonzero;"/>
            <path d="M505.3,937C516.8,923.5 528.3,909.9 539.7,896.4C525.925,904.831 510.386,909.965 494.3,911.4C507.9,898.3 521.4,885.2 535,872.1C512.1,879.3 489.3,886.4 466.4,893.6C492.3,874.5 518.3,855.5 544.2,836.4C515.1,844.1 487.3,856.5 462.1,872.9C490.1,845.3 518.1,817.7 546.2,790.1C512.989,806.901 483.183,829.721 458.3,857.4C473.9,828.9 489.5,800.5 505.1,772C486.3,804 463.7,833.9 437.9,860.7C444.4,845.2 451,829.8 457.5,814.3C441.1,822.5 424.8,830.7 408.4,838.9L482.2,764.2C450.4,779.2 420.7,798.6 394.2,821.7C403.6,797.7 413.1,773.6 422.5,749.6C406.9,771.51 391.333,793.443 375.8,815.4C378.3,801.9 380.8,788.5 383.4,775C376.9,789.5 370.3,804 363.8,818.5C363.9,800.6 364.1,782.6 364.2,764.7C356.2,788.3 352.6,813.3 353.7,838.2C374.1,859 399.2,882.2 422.5,899.6C446.1,916.8 476.7,931.8 505.3,937ZM909.4,1060.4C919.525,1043.98 931.504,1028.78 945.1,1015.1C923.1,1021.9 902.5,1033.2 884.8,1048C891.9,1037.6 898.9,1027.2 906,1016.8C892,1024.8 877.9,1032.8 863.9,1040.8C875.6,1027.8 887.3,1014.7 899,1001.7C870.924,1017.09 841.543,1029.98 811.2,1040.2C823.7,1027.8 836.3,1015.4 848.8,1003C832.4,1012.1 816,1021.1 799.5,1030.2C821.9,1001.6 844.2,972.9 866.6,944.3L777.4,1021.8C786.2,1006 795,990.3 803.7,974.5C786.5,984 771.9,998.2 761.9,1015.1C767.4,998 772.9,980.9 778.5,963.8C759.16,976.554 743.558,994.228 733.3,1015C732.8,1004.5 732.2,994 731.7,983.5L710.7,1013.5L704.7,979C699.9,986 697.7,994.6 698.6,1003.1C692.4,987 686.3,970.9 680.1,954.8C681.7,978.8 683.2,1002.9 684.8,1026.9C757.2,1053.9 832.7,1068.2 909.4,1060.4Z" style="fill:rgb(0,72,66);fill-rule:nonzero;"/>
        </g>
    </g>
</svg>
