<svg width="1600" height="1600" viewBox="0 0 1200 1200" xmlns="http://www.w3.org/2000/svg">
  <path d="M1200 600A600 600 0 1 1-.02 600 600 600 0 0 1 1200 600" fill="#131a0f"/>
  <path d="M883.39 363.84c0-52.1-42.37-94.47-94.47-94.47s-94.46 42.37-94.46 94.47c0 34.8 19.13 64.95 47.23 81.33v54.8l-141.7 70.84-141.7-70.85v-54.79c28.1-16.39 47.23-46.52 47.23-81.33 0-52.1-42.36-94.47-94.46-94.47-52.1 0-94.47 42.37-94.47 94.47 0 34.8 19.13 64.95 47.23 81.33v83.98c0 17.9 10.11 34.24 26.12 42.28l162.81 81.38v102.02c-28.1 16.39-47.23 46.52-47.23 81.33 0 52.1 42.37 94.47 94.47 94.47s94.46-42.37 94.46-94.47c0-34.8-19.12-64.94-47.23-81.33V652.81l162.81-81.43a47.17 47.17 0 0 0 26.12-42.23v-83.97c28.1-16.4 47.23-46.53 47.23-81.34zm-472.32-47.23a47.3 47.3 0 0 1 47.23 47.23 47.31 47.31 0 0 1-47.23 47.23 47.31 47.31 0 0 1-47.23-47.23 47.31 47.31 0 0 1 47.23-47.23zM600 883.4a47.28 47.28 0 0 1-47.23-47.23c0-26.07 21.2-47.23 47.23-47.23s47.23 21.16 47.23 47.23A47.27 47.27 0 0 1 600 883.4zm188.93-472.32c-26.07 0-47.23-21.2-47.23-47.23s21.16-47.23 47.23-47.23a47.28 47.28 0 0 1 47.23 47.23 47.27 47.27 0 0 1-47.23 47.23z" fill="#75d601"/>
</svg>