<svg width="1600" height="1600" viewBox="0 0 1200 1200" xmlns="http://www.w3.org/2000/svg">
  <path d="M1200 600A600 600 0 1 1-.02 600 600 600 0 0 1 1200 600" fill="#131a0f"/>
  <path d="M560.68 552.77a94.46 94.46 0 1 1-94.47-94.47 94.46 94.46 0 0 1 94.47 94.47" fill="#75d601"/>
  <path d="M554.26 631.25c-21.63 24.25-53.02 39.6-88.02 39.6-35.04 0-66.45-15.35-88.09-39.67-51.27 33.8-85.16 91.77-85.16 157.75a47.25 47.25 0 0 0 47.23 47.23h251.9a47.25 47.25 0 0 0 47.22-47.23c0-65.93-33.86-123.91-85.08-157.68zM828.37 434.69a94.46 94.46 0 1 1-188.93 0 94.46 94.46 0 0 1 188.93 0" fill="#75d601"/>
  <path d="M821.9 513.16c-21.63 24.25-53 39.6-88 39.6-35.04 0-66.45-15.37-88.08-39.65a189.24 189.24 0 0 0-75.86 100.37 212.58 212.58 0 0 1 80.63 104.6h209.19A47.25 47.25 0 0 0 907 670.85c0-65.94-33.86-123.91-85.11-157.7z" fill="#75d601"/>
</svg>